<?xml version="1.0" encoding="utf-8"?>
<!-- Generator: Adobe Illustrator 25.2.3, SVG Export Plug-In . SVG Version: 6.00 Build 0)  -->
<svg version="1.1" id="Layer_1" xmlns="http://www.w3.org/2000/svg" xmlns:xlink="http://www.w3.org/1999/xlink" x="0px" y="0px"
	 viewBox="0 0 316.6 111.8" style="enable-background:new 0 0 316.6 111.8;" xml:space="preserve">
<style type="text/css">
	.st0{fill:#051274;}
</style>
<g id="a">
</g>
<g id="b">
	<g id="c">
		<g>
			<g>
				<path class="st0" d="M163.6,11.9c0-7.9-5-11.9-15.1-11.9h-39.4C96.4,0,88.3,6.4,84.9,19.2l-8.1,30.2c-0.7,2.7-1.1,5.1-1.1,7.3
					c0,7.9,5,11.9,15.1,11.9h39.4c12.8,0,20.8-6.4,24.2-19.1l8.1-30.2C163.2,16.5,163.6,14,163.6,11.9 M131.9,24.3l-5.4,20
					c-1.7,6.4-5.7,9.6-12.1,9.6c-5,0-7.6-2-7.6-5.9c0-1.1,0.2-2.3,0.5-3.6l5.3-20c1.7-6.4,5.8-9.6,12.1-9.6c5,0,7.5,2,7.5,5.9
					C132.4,21.7,132.2,22.9,131.9,24.3"/>
				<path class="st0" d="M196.8,48c-5,0-7.6-2-7.6-5.9c0-1.1,0.2-2.3,0.5-3.6l2.6-8.2c1.7-6.4,6.4-9.6,12.8-9.6h34.9L252.4,0h-60.1
					c-12.8,0-20.9,6.4-24.3,19.1l-8.1,30.3c-0.7,2.7-1.1,5.1-1.1,7.2c0,8,5,12,15.1,12h37.7L224.2,48L196.8,48L196.8,48z"/>
				<path class="st0" d="M218.8,68.6h30.5l6.7-11.4h18.8l-0.3,11.4h26V0h-41.1L218.8,68.6z M273.8,20.2h1.8L275,40.9H263L273.8,20.2
					L273.8,20.2z"/>
				<path class="st0" d="M94.2,0H6.8L0,20.5h27.7l-14.4,48h29.3L57,20.5h23C82.6,7.6,88.3,2.7,94.2,0"/>
			</g>
			<path class="st0" d="M314.3,61c0.7,0.4,1.3,1,1.7,1.7s0.6,1.5,0.6,2.4s-0.2,1.7-0.6,2.4s-1,1.3-1.7,1.7s-1.5,0.6-2.3,0.6
				s-1.6-0.2-2.3-0.6c-0.7-0.4-1.3-1-1.7-1.7s-0.6-1.5-0.6-2.4s0.2-1.7,0.6-2.4s1-1.3,1.7-1.7s1.5-0.6,2.3-0.6S313.6,60.6,314.3,61z
				 M314.7,67.8c0.7-0.7,1.1-1.7,1.1-2.8s-0.4-2-1.1-2.8c-0.7-0.7-1.6-1.1-2.7-1.1s-2,0.4-2.7,1.1c-0.7,0.7-1.1,1.7-1.1,2.8
				c0,1.1,0.4,2,1.1,2.8c0.7,0.7,1.6,1.1,2.7,1.1S314,68.5,314.7,67.8z M313.6,65c-0.2,0.3-0.5,0.4-0.8,0.6l1.4,1.9h-1l-1.3-1.8
				h-0.8v1.8h-0.8v-5.1h1.8c0.5,0,0.9,0.2,1.3,0.4c0.4,0.3,0.5,0.7,0.5,1.2C313.9,64.4,313.8,64.7,313.6,65L313.6,65z M311.1,63.2
				v1.8h1c0.3,0,0.5-0.1,0.7-0.2c0.2-0.2,0.3-0.4,0.3-0.7s-0.1-0.5-0.3-0.7s-0.4-0.2-0.7-0.2L311.1,63.2L311.1,63.2z"/>
			<g>
				<path class="st0" d="M15,110c-1.5-1.2-2.2-2.9-2.3-5.2h5c0,0.9,0.3,1.7,0.8,2.2c0.5,0.5,1.2,0.8,2.2,0.8c0.9,0,1.6-0.2,2.1-0.5
					s0.7-0.8,0.7-1.4c0-0.7-0.3-1.2-0.9-1.5c-0.6-0.4-1.5-0.7-2.8-1.2c-1.4-0.4-2.5-0.8-3.4-1.3c-0.9-0.4-1.6-1.1-2.3-1.9
					c-0.6-0.8-0.9-2-0.9-3.4c0-1.1,0.3-2.1,0.9-3c0.6-0.9,1.5-1.6,2.6-2.1c1.1-0.5,2.4-0.7,3.9-0.7c1.3,0,2.5,0.2,3.7,0.7
					c1.1,0.5,2.1,1.2,2.8,2.2c0.7,1,1.1,2.2,1.1,3.7h-4.9c0-0.7-0.2-1.3-0.7-1.8c-0.4-0.5-1.1-0.7-2-0.7c-0.8,0-1.3,0.2-1.8,0.5
					c-0.4,0.3-0.6,0.8-0.6,1.3c0,0.7,0.3,1.2,0.9,1.5s1.5,0.7,2.8,1.1c1.4,0.4,2.5,0.8,3.4,1.2c0.9,0.4,1.6,1.1,2.3,1.9
					c0.6,0.9,1,2,1,3.4c0,1.1-0.3,2.1-0.9,3s-1.5,1.6-2.7,2.2c-1.2,0.5-2.6,0.8-4.2,0.8C18.4,111.8,16.5,111.2,15,110L15,110z"/>
				<path class="st0" d="M68.8,110.5c-1.7-0.9-3-2.1-4-3.7c-1-1.6-1.5-3.4-1.5-5.5s0.5-3.9,1.5-5.5c1-1.6,2.3-2.8,4-3.7
					c1.7-0.9,3.5-1.3,5.4-1.3s3.8,0.4,5.4,1.3c1.7,0.9,3,2.1,4,3.7s1.5,3.4,1.5,5.5s-0.5,3.9-1.5,5.5c-1,1.6-2.3,2.8-4,3.7
					c-1.7,0.9-3.5,1.3-5.4,1.3S70.4,111.4,68.8,110.5z M77.1,106.4c0.9-0.5,1.6-1.2,2.1-2.1s0.7-1.9,0.7-3.1s-0.2-2.2-0.7-3.1
					s-1.2-1.6-2.1-2.1s-1.9-0.8-2.9-0.8s-2.1,0.2-2.9,0.8s-1.6,1.2-2.1,2.1s-0.7,1.9-0.7,3.1s0.2,2.2,0.7,3.1s1.2,1.6,2.1,2.1
					s1.9,0.8,2.9,0.8S76.2,106.9,77.1,106.4z"/>
				<path class="st0" d="M125.3,110.5c-1.7-0.9-3-2.1-4-3.7c-1-1.6-1.5-3.4-1.5-5.5s0.5-3.9,1.5-5.5c1-1.6,2.3-2.8,4-3.7
					s3.4-1.3,5.4-1.3c1.7,0,3.2,0.3,4.6,1s2.6,1.6,3.7,2.8s1.7,2.6,2.1,4.2h-5.3c-0.4-1-1.1-1.8-2-2.4c-0.9-0.6-1.9-0.9-3.1-0.9
					c-1.1,0-2,0.3-2.9,0.8c-0.9,0.5-1.6,1.2-2.1,2.1c-0.5,0.9-0.7,1.9-0.7,3s0.2,2.1,0.7,3s1.2,1.6,2.1,2.1c0.9,0.5,1.8,0.8,2.9,0.8
					c1.2,0,2.3-0.3,3.2-0.9s1.6-1.4,2-2.4h5.2c-0.4,1.6-1.1,3.1-2.1,4.3s-2.2,2.1-3.6,2.8s-3,1-4.7,1
					C128.8,111.8,127,111.4,125.3,110.5L125.3,110.5z"/>
				<path class="st0" d="M181.2,110.5c-1.6-0.9-3-2.1-4-3.7c-1-1.6-1.5-3.4-1.5-5.5s0.5-3.9,1.5-5.5c1-1.6,2.3-2.8,4-3.7
					c1.6-0.9,3.4-1.3,5.4-1.3c1.7,0,3.2,0.3,4.6,1s2.6,1.6,3.7,2.8s1.7,2.6,2.1,4.2h-5.3c-0.4-1-1.1-1.8-2-2.4
					c-0.9-0.6-1.9-0.9-3.1-0.9c-1.1,0-2,0.3-2.9,0.8c-0.9,0.5-1.6,1.2-2.1,2.1c-0.5,0.9-0.7,1.9-0.7,3s0.2,2.1,0.7,3
					s1.2,1.6,2.1,2.1c0.9,0.5,1.8,0.8,2.9,0.8c1.2,0,2.3-0.3,3.2-0.9s1.6-1.4,2-2.4h5.2c-0.4,1.6-1.1,3.1-2.1,4.3s-2.2,2.1-3.6,2.8
					s-3,1-4.7,1C184.7,111.8,182.9,111.4,181.2,110.5L181.2,110.5z"/>
				<path class="st0" d="M238,103.2v3.9h8.3v4.3h-13.4V91.1H246v4.3h-8V99h7.7v4.2C245.7,103.2,238,103.2,238,103.2z"/>
				<path class="st0" d="M294.4,111.4l-5.5-6.9h-1.1v6.9h-5.1V91.1h7.4c1.6,0,3,0.3,4.2,0.8c1.2,0.6,2.1,1.3,2.8,2.4
					c0.7,1,1,2.2,1,3.5s-0.3,2.5-1,3.5s-1.6,1.8-2.8,2.3l6.2,7.7L294.4,111.4L294.4,111.4z M287.8,95.4v5h2.1c1,0,1.7-0.2,2.2-0.7
					c0.5-0.5,0.8-1.1,0.8-1.8s-0.3-1.3-0.8-1.8c-0.5-0.5-1.3-0.7-2.2-0.7L287.8,95.4L287.8,95.4z"/>
			</g>
		</g>
	</g>
</g>
</svg>
